<?xml version="1.0" encoding="UTF-8" standalone="no"?>
<svg
   id="svg8"
   version="1.1"
   viewBox="0 0 48 48"
   height="48"
   width="48"
   sodipodi:docname="exit.svg"
   inkscape:version="1.3.2 (091e20ef0f, 2023-11-25, custom)"
   xmlns:inkscape="http://www.inkscape.org/namespaces/inkscape"
   xmlns:sodipodi="http://sodipodi.sourceforge.net/DTD/sodipodi-0.dtd"
   xmlns="http://www.w3.org/2000/svg"
   xmlns:svg="http://www.w3.org/2000/svg"
   xmlns:rdf="http://www.w3.org/1999/02/22-rdf-syntax-ns#"
   xmlns:cc="http://creativecommons.org/ns#"
   xmlns:dc="http://purl.org/dc/elements/1.1/">
  <sodipodi:namedview
     id="namedview1"
     pagecolor="#ffffff"
     bordercolor="#666666"
     borderopacity="1.0"
     inkscape:showpageshadow="2"
     inkscape:pageopacity="0.0"
     inkscape:pagecheckerboard="0"
     inkscape:deskcolor="#d1d1d1"
     inkscape:zoom="11.039097"
     inkscape:cx="24.005586"
     inkscape:cy="27.085548"
     inkscape:window-width="1912"
     inkscape:window-height="1012"
     inkscape:window-x="0"
     inkscape:window-y="0"
     inkscape:window-maximized="1"
     inkscape:current-layer="svg8"
     showgrid="false" />
  <defs
     id="defs2" />
  <metadata
     id="metadata5">
    <rdf:RDF>
      <cc:Work
         rdf:about="">
        <dc:format>image/svg+xml</dc:format>
        <dc:type
           rdf:resource="http://purl.org/dc/dcmitype/StillImage" />
      </cc:Work>
    </rdf:RDF>
  </metadata>
  <path
     id="path831"
     style="opacity:1;vector-effect:none;fill:#f2f2f2;fill-opacity:1;stroke:none;stroke-width:3.75;stroke-linecap:round;stroke-linejoin:round;stroke-miterlimit:4;stroke-dasharray:none;stroke-dashoffset:0;stroke-opacity:1;paint-order:stroke markers fill"
     d="M 24,4 C 12.954305,4 4,12.954305 4,24 4,35.045695 12.954305,44 24,44 35.045695,44 44,35.045695 44,24 44,12.954305 35.045695,4 24,4 Z m 0,1.25 C 34.355339,5.25 42.75,13.644661 42.75,24 42.75,34.355339 34.355339,42.75 24,42.75 13.644661,42.75 5.25,34.355339 5.25,24 5.25,13.644661 13.644661,5.25 24,5.25 Z" />
  <g
     id="g1"
     transform="translate(1,1)">
    <path
       id="path2"
       style="opacity:1;fill:#f2f2f2;fill-opacity:1;stroke:none;stroke-width:4.59844;stroke-linecap:round;stroke-linejoin:round;stroke-miterlimit:4;stroke-dasharray:none;stroke-dashoffset:0;stroke-opacity:1;paint-order:stroke markers fill"
       d="m 22.571647,20.10504 v 1.877474 h -7.454459 v 2.034973 h 7.454459 v 1.877473 l 5.366467,-2.894961 z"
       sodipodi:nodetypes="cccccccc" />
    <path
       id="rect3"
       style="color:#000000;fill:#f2f2f2;fill-opacity:1;-inkscape-stroke:none"
       d="m 17.162109,13.658203 c -1.121783,0 -2.044921,0.919234 -2.044921,2.041016 v 4.259765 h 1.25 v -4.259765 c 0,-0.450906 0.344016,-0.791016 0.794921,-0.791016 h 11.679688 c 0.450905,0 0.791015,0.34011 0.791015,0.791016 v 14.599609 c 0,0.450907 -0.34011,0.792969 -0.791015,0.792969 H 17.162109 c -0.450905,0 -0.794921,-0.342063 -0.794921,-0.792969 v -4.257812 h -1.25 v 4.257812 c 0,1.121783 0.923138,2.042969 2.044921,2.042969 h 11.679688 c 1.121783,0 2.041015,-0.921186 2.041015,-2.042969 V 15.699219 c 0,-1.121782 -0.919232,-2.041016 -2.041015,-2.041016 z"
       sodipodi:nodetypes="ssccssssssssccsssssss" />
  </g>
</svg>
