<?xml version="1.0" encoding="UTF-8" standalone="no"?>
<svg
   width="48"
   height="48"
   viewBox="0 0 48 48"
   version="1.1"
   id="svg8"
   sodipodi:docname="lock.svg"
   inkscape:version="1.3.2 (091e20ef0f, 2023-11-25, custom)"
   xmlns:inkscape="http://www.inkscape.org/namespaces/inkscape"
   xmlns:sodipodi="http://sodipodi.sourceforge.net/DTD/sodipodi-0.dtd"
   xmlns="http://www.w3.org/2000/svg"
   xmlns:svg="http://www.w3.org/2000/svg"
   xmlns:rdf="http://www.w3.org/1999/02/22-rdf-syntax-ns#"
   xmlns:cc="http://creativecommons.org/ns#"
   xmlns:dc="http://purl.org/dc/elements/1.1/">
  <sodipodi:namedview
     id="namedview1"
     pagecolor="#ffffff"
     bordercolor="#666666"
     borderopacity="1.0"
     inkscape:showpageshadow="2"
     inkscape:pageopacity="0.0"
     inkscape:pagecheckerboard="0"
     inkscape:deskcolor="#d1d1d1"
     inkscape:zoom="16.208306"
     inkscape:cx="18.447332"
     inkscape:cy="19.43448"
     inkscape:window-width="1912"
     inkscape:window-height="1012"
     inkscape:window-x="0"
     inkscape:window-y="0"
     inkscape:window-maximized="1"
     inkscape:current-layer="svg8"
     showgrid="false" />
  <defs
     id="defs2" />
  <metadata
     id="metadata5">
    <rdf:RDF>
      <cc:Work
         rdf:about="">
        <dc:format>image/svg+xml</dc:format>
        <dc:type
           rdf:resource="http://purl.org/dc/dcmitype/StillImage" />
      </cc:Work>
    </rdf:RDF>
  </metadata>
  <path
     style="vector-effect:none;fill:#f2f2f2;fill-opacity:1;stroke:none;stroke-width:3.75238;stroke-linecap:round;stroke-linejoin:round;stroke-miterlimit:4;stroke-dasharray:none;stroke-dashoffset:0;stroke-opacity:1;paint-order:stroke markers fill"
     d="m 117.78998,28.062266 -1.08641,0.0064 2e-5,0.0024 -37.799575,0.0816 -0.007,-1.249983 37.379655,-0.0791 c -1.83062,-8.704176 -9.52473,-14.924431 -18.41926,-14.890941 -8.428083,0.0507 -15.786638,5.718662 -17.987023,13.854598 l -1.291486,0.0077 C 80.806771,16.95191 88.730946,10.732773 97.849919,10.670451 107.928,10.61958 116.47101,18.070836 117.78998,28.062266 Z m -0.43153,7.507607 C 115.13057,44.412889 107.20639,50.632007 98.087432,50.694325 88.009353,50.745197 79.466338,43.293941 78.147368,33.30251 l 1.086411,-0.0064 -1.4e-5,-0.0024 38.306055,-0.0816 0.007,1.249983 -37.886139,0.0791 c 1.830589,8.704029 9.524477,14.924242 18.418861,14.890942 8.428078,-0.0507 15.786638,-5.718664 17.987018,-13.854598 z"
     id="path817"
     sodipodi:nodetypes="cccccccccccccccccccccc" />
  <path
     id="path2"
     style="color:#000000;opacity:1;fill:#f2f2f2;fill-opacity:1;stroke-linecap:round;stroke-linejoin:round;stroke-miterlimit:2;-inkscape-stroke:none"
     d="M 4.28125 20.666016 C 4.0995845 21.748484 4 22.858366 4 23.992188 C 4 35.02783 12.958497 43.986328 23.994141 43.986328 C 35.029785 43.986328 43.988281 35.02783 43.988281 23.992188 C 43.988281 22.858366 43.888701 21.748484 43.707031 20.666016 L 43.542969 20.666016 L 42.566406 20.666016 L 5.421875 20.666016 L 4.5546875 20.666016 L 4.28125 20.666016 z M 5.2597656 21.791016 L 42.728516 21.791016 C 42.813924 22.51349 42.863281 23.246468 42.863281 23.992188 C 42.863281 34.419838 34.421791 42.861328 23.994141 42.861328 C 13.566489 42.861328 5.125 34.419838 5.125 23.992188 C 5.125 23.246468 5.1743575 22.51349 5.2597656 21.791016 z " />
  <path
     style="color:#000000;fill:#f2f2f2;fill-opacity:1;stroke-linecap:round;stroke-linejoin:round;stroke-miterlimit:2;-inkscape-stroke:none"
     d="m 23.880859,30.039062 c -1.679508,0 -3.048828,1.369321 -3.048828,3.048829 v 1.808593 c 0,1.679508 1.36932,3.048828 3.048828,3.048828 h 0.226563 c 1.679508,0 3.048828,-1.36932 3.048828,-3.048828 v -1.808593 c 0,-1.679508 -1.36932,-3.048829 -3.048828,-3.048829 z m 0,1.125 h 0.226563 c 1.075718,0 1.923828,0.848111 1.923828,1.923829 v 1.808593 c 0,1.075718 -0.84811,1.923828 -1.923828,1.923828 h -0.226563 c -1.075718,0 -1.923828,-0.84811 -1.923828,-1.923828 v -1.808593 c 0,-1.075718 0.84811,-1.923828 1.923828,-1.923829 z"
     id="rect2" />
  <path
     id="path3"
     style="color:#000000;fill:#f2f2f2;-inkscape-stroke:none;fill-opacity:1"
     d="M 23.994141 4 C 16.432673 4 10.050669 9.0735967 8.0585938 15.998047 L 9.2265625 15.998047 C 11.17813 9.6962096 17.046647 5.125 23.994141 5.125 C 30.941634 5.125 36.810151 9.6962096 38.761719 15.998047 L 39.929688 15.998047 C 37.937612 9.0735967 31.555607 4 23.994141 4 z " />
</svg>
