<?xml version="1.0" encoding="UTF-8" standalone="no"?>
<svg
   width="48"
   height="48"
   viewBox="0 0 48 48"
   version="1.1"
   id="svg8"
   sodipodi:docname="reboot.svg"
   inkscape:version="1.3.2 (091e20ef0f, 2023-11-25, custom)"
   xmlns:inkscape="http://www.inkscape.org/namespaces/inkscape"
   xmlns:sodipodi="http://sodipodi.sourceforge.net/DTD/sodipodi-0.dtd"
   xmlns="http://www.w3.org/2000/svg"
   xmlns:svg="http://www.w3.org/2000/svg"
   xmlns:rdf="http://www.w3.org/1999/02/22-rdf-syntax-ns#"
   xmlns:cc="http://creativecommons.org/ns#"
   xmlns:dc="http://purl.org/dc/elements/1.1/">
  <sodipodi:namedview
     id="namedview1"
     pagecolor="#ffffff"
     bordercolor="#666666"
     borderopacity="1.0"
     inkscape:showpageshadow="2"
     inkscape:pageopacity="0.0"
     inkscape:pagecheckerboard="0"
     inkscape:deskcolor="#d1d1d1"
     inkscape:zoom="6.9411765"
     inkscape:cx="16.927966"
     inkscape:cy="16.927966"
     inkscape:window-width="2552"
     inkscape:window-height="1372"
     inkscape:window-x="0"
     inkscape:window-y="0"
     inkscape:window-maximized="1"
     inkscape:current-layer="svg8"
     showgrid="false" />
  <defs
     id="defs2" />
  <metadata
     id="metadata5">
    <rdf:RDF>
      <cc:Work
         rdf:about="">
        <dc:format>image/svg+xml</dc:format>
        <dc:type
           rdf:resource="http://purl.org/dc/dcmitype/StillImage" />
      </cc:Work>
    </rdf:RDF>
  </metadata>
  <g
     id="layer1"
     transform="matrix(-1.2507463,0,0,1.2508411,44.011945,-356.92327)"
     style="fill:#f2f2f2">
    <path
       style="opacity:1;vector-effect:none;fill:#f2f2f2;fill-opacity:1;stroke:none;stroke-width:3.00189;stroke-linecap:round;stroke-linejoin:round;stroke-miterlimit:4;stroke-dasharray:none;stroke-dashoffset:0;stroke-opacity:1;paint-order:stroke markers fill"
       d="M 19.001953,1.1308594 V 2 H 19 v 11 h 1 V 2.3359375 A 15,15 45 0 1 32,17 15,15 45 0 1 21.001953,31.455078 v 1.033203 A 16.009488,16.010701 45 0 0 33.009766,17 16.009488,16.010701 45 0 0 19.001953,1.1308594 Z M 12.998047,1.5117188 A 16.009488,16.010701 45 0 0 0.99023438,17 16.009488,16.010701 45 0 0 14.998047,32.869141 V 32 H 15 V 21 H 14 V 31.664062 A 15,15 45 0 1 2,17 15,15 45 0 1 12.998047,2.5449219 Z"
       transform="matrix(0.70668771,-0.70663419,0.70668771,0.70663419,-8.0273788,304.53335)"
       id="path817" />
  </g>
</svg>
